<svg width="55" height="55" viewBox="0 0 55 55" fill="none" xmlns="http://www.w3.org/2000/svg">
    <rect width="55" height="55" rx="8" fill="white"/>
    <path d="M32.3467 41.3334C32.2667 41.3334 32.1733 41.32 32.0933 41.2934C29.4133 40.5334 26.6 40.5334 23.92 41.2934C23.4267 41.4267 22.9067 41.1467 22.7733 40.6534C22.6267 40.16 22.92 39.64 23.4133 39.5067C26.4267 38.6534 29.6 38.6534 32.6133 39.5067C33.1067 39.6534 33.4 40.16 33.2533 40.6534C33.12 41.0667 32.7467 41.3334 32.3467 41.3334Z" fill="#0F191A"/>
    <path d="M37.6133 20.48C36.2267 17.68 33.5467 15.6133 30.44 14.9333C27.1867 14.2133 23.8533 14.9867 21.3067 17.04C18.7467 19.08 17.2933 22.1333 17.2933 25.4C17.2933 28.8533 19.36 32.4667 22.48 34.56V35.6667C22.4667 36.04 22.4533 36.6133 22.9067 37.08C23.3733 37.56 24.0667 37.6133 24.6133 37.6133H31.4533C32.1733 37.6133 32.72 37.4134 33.0933 37.04C33.6 36.52 33.5867 35.8533 33.5733 35.4933V34.56C37.7067 31.7733 40.3067 25.8933 37.6133 20.48ZM30.2933 27.4933L28.8667 29.9733C28.68 30.2933 28.3467 30.48 28 30.48C27.8267 30.48 27.6533 30.44 27.5067 30.3467C27.0267 30.0667 26.8667 29.4533 27.1333 28.9867L28.2667 27.0133H27.1467C26.48 27.0133 25.9333 26.72 25.64 26.2267C25.3467 25.72 25.3733 25.1067 25.7067 24.52L27.1333 22.04C27.4133 21.56 28.0267 21.4 28.4933 21.6667C28.9733 21.9467 29.1333 22.56 28.8667 23.0267L27.7333 25H28.8533C29.52 25 30.0667 25.2933 30.36 25.7867C30.6533 26.2933 30.6267 26.92 30.2933 27.4933Z" fill="#0F191A"/>
</svg>
